<?xml version="1.0" standalone="no"?><!DOCTYPE svg PUBLIC "-//W3C//DTD SVG 1.1//EN" "http://www.w3.org/Graphics/SVG/1.1/DTD/svg11.dtd"><svg t="1571204662901" class="icon" viewBox="0 0 1024 1024" version="1.1" xmlns="http://www.w3.org/2000/svg" p-id="7717" xmlns:xlink="http://www.w3.org/1999/xlink" width="200" height="200"><defs><style type="text/css"></style></defs><path d="M0 17.066667v989.866666a17.066667 17.066667 0 0 0 17.066667 17.066667h989.866666a17.066667 17.066667 0 0 0 17.066667-17.066667V17.066667a17.066667 17.066667 0 0 0-17.066667-17.066667H17.066667a17.066667 17.066667 0 0 0-17.066667 17.066667z m853.333333 716.8a17.066667 17.066667 0 0 1 17.066667 17.066666v68.266667h51.2a17.066667 17.066667 0 1 1 0 34.133333h-51.2v68.266667a17.066667 17.066667 0 0 1-17.066667 17.066667H648.533333a17.066667 17.066667 0 0 1-17.066666-17.066667v-68.266667H102.4a17.066667 17.066667 0 1 1 0-34.133333h529.066667v-68.266667a17.066667 17.066667 0 0 1 17.066666-17.066666h204.8zM614.4 409.6a17.066667 17.066667 0 0 1 17.066667 17.066667v68.266666h290.133333a17.066667 17.066667 0 1 1 0 34.133334H631.466667v68.266666a17.066667 17.066667 0 0 1-17.066667 17.066667H409.6a17.066667 17.066667 0 0 1-17.066667-17.066667v-68.266666H102.4a17.066667 17.066667 0 1 1 0-34.133334h290.133333v-68.266666a17.066667 17.066667 0 0 1 17.066667-17.066667h204.8zM375.466667 85.333333a17.066667 17.066667 0 0 1 17.066666 17.066667v68.266667h529.066667a17.066667 17.066667 0 1 1 0 34.133333H392.533333v68.266667a17.066667 17.066667 0 0 1-17.066666 17.066666H170.666667a17.066667 17.066667 0 0 1-17.066667-17.066666v-68.266667H102.4a17.066667 17.066667 0 1 1 0-34.133333h51.2V102.4a17.066667 17.066667 0 0 1 17.066667-17.066667h204.8z" p-id="7718"></path></svg>