<?xml version="1.0" standalone="no"?><!DOCTYPE svg PUBLIC "-//W3C//DTD SVG 1.1//EN" "http://www.w3.org/Graphics/SVG/1.1/DTD/svg11.dtd"><svg t="1571155121763" class="icon" viewBox="0 0 1208 1024" version="1.1" xmlns="http://www.w3.org/2000/svg" p-id="16183" xmlns:xlink="http://www.w3.org/1999/xlink" width="235.9375" height="200"><defs><style type="text/css"></style></defs><path d="M1205.935464 698.466667l-562.769883 316.470925a93.686547 93.686547 0 0 1-80.395698 0L1.394145 698.466667c-0.92943-1.85886-0.92943-92.943003 0-93.407718l20.447461-7.900155 540.928277 293.69989a93.686547 93.686547 0 0 0 80.395698 0l541.392992-294.164605 21.376891 8.36487a695.353077 695.353077 0 0 1 0 93.407718z m-562.769883 131.049635a93.686547 93.686547 0 0 1-80.395698 0L1.394145 512.115946c-0.92943-0.464715 0.464715-95.266578 0-92.943003l18.588601-7.43544 542.787137 295.094035a93.686547 93.686547 0 0 0 80.395698 0l543.716567-295.094035 19.053316 7.43544c0 0.464715-1.85886 93.872433 0 92.943003zM1187.811578 348.536261l-544.645997 295.55875a93.686547 93.686547 0 0 1-80.395698 0L18.588601 348.536261a22.631621 22.631621 0 0 1 0-43.683211L562.769883 9.2943a93.686547 93.686547 0 0 1 80.395698 0l544.645997 295.55875a22.771036 22.771036 0 0 1 0 43.683211zM499.568641 269.534709H356.436416v-24.629896L242.581238 302.99419l113.855178 58.554092v-25.094611h143.132225V269.534709z m103.631448-175.662276l-72.030827 61.807097h30.671191v77.607407h83.183988V155.67953h30.671191z m41.824352 355.971701V372.236727h-83.183988v77.607407h-30.671191l72.030827 61.807097 72.495543-61.807097h-30.671191z m205.868751-204.939321v24.629896h-143.132224v66.918962h143.132224v25.094611l113.855179-58.554092z" p-id="16184"></path></svg>