<?xml version="1.0" standalone="no"?><!DOCTYPE svg PUBLIC "-//W3C//DTD SVG 1.1//EN" "http://www.w3.org/Graphics/SVG/1.1/DTD/svg11.dtd"><svg t="1571392585272" class="icon" viewBox="0 0 1024 1024" version="1.1" xmlns="http://www.w3.org/2000/svg" p-id="12312" xmlns:xlink="http://www.w3.org/1999/xlink" width="200" height="200"><defs><style type="text/css"></style></defs><path d="M512 1024C236.840179 1024 6.600897 799.98278 0.137758 524.765561-6.325381 243.154081 217.62296 6.463139 499.154081 0H512c275.148341 0 505.399103 224.01722 511.862242 499.165561C1030.313901 780.765561 806.296682 1017.536861 524.765561 1024z m25.6-403.136861l83.102422 83.102422-44.771301 44.897578 211.2287 38.273722-38.44592-211.090942-44.897578 44.771301-83.113901-83.263139-83.182781 83.263139z m-51.2-217.645919l-89.645919-89.63444 44.897578-44.7713-211.228699-38.365561 38.36556 211.102422 44.771301-44.771301 83.18278 83.25166 89.542601-76.8zM403.21722 537.6l-89.542601 89.542601-38.445919-44.771301-38.388521 211.148341 211.113902-38.35408-44.771301-44.771301 83.182781-83.263139z m217.56556-51.2l83.102422-83.263139 44.909058 44.897578 38.354081-211.228699-204.81148 38.41148 44.909058 44.7713-89.726278 83.332018 83.182781 83.102422z" p-id="12313"></path></svg>