<?xml version="1.0" standalone="no"?><!DOCTYPE svg PUBLIC "-//W3C//DTD SVG 1.1//EN" "http://www.w3.org/Graphics/SVG/1.1/DTD/svg11.dtd"><svg t="1573020891990" class="icon" viewBox="0 0 1024 1024" version="1.1" xmlns="http://www.w3.org/2000/svg" p-id="15348" xmlns:xlink="http://www.w3.org/1999/xlink" width="200" height="200"><defs><style type="text/css"></style></defs><path d="M364.842667 789.333333a148.864 148.864 0 0 1 78.677333-110.592L279.594667 350.890667a21.333333 21.333333 0 0 1 38.144-19.114667l166.186666 332.373333c9.130667-1.706667 18.474667-2.816 28.074667-2.816 75.008 0 136.704 55.808 147.157333 128h257.194667A487.850667 487.850667 0 0 0 1002.666667 512C1002.666667 241.450667 782.549333 21.333333 512 21.333333S21.333333 241.450667 21.333333 512c0 102.869333 31.957333 198.357333 86.314667 277.333333h257.194667z m566.058666-234.069333l-58.88 19.626667a21.418667 21.418667 0 0 1-27.008-13.482667 21.333333 21.333333 0 0 1 13.482667-26.965333l58.88-19.626667a21.290667 21.290667 0 1 1 13.525333 40.448z m11.008-149.845333a21.333333 21.333333 0 0 1-5.930666 29.568l-58.88 39.253333a21.205333 21.205333 0 0 1-29.568-5.930667 21.333333 21.333333 0 0 1 5.930666-29.568l58.88-39.253333a21.376 21.376 0 0 1 29.568 5.930667z m-72.064-140.586667a21.333333 21.333333 0 0 1 30.165334 30.165333l-58.88 58.88a21.418667 21.418667 0 0 1-30.208 0 21.333333 21.333333 0 0 1 0-30.165333l58.922666-58.88z m-141.44-14.122667l39.296-78.506666a21.333333 21.333333 0 0 1 38.186667 19.072l-39.296 78.506666a21.333333 21.333333 0 1 1-38.186667-19.072z m-118.442666-57.216l39.253333-98.133333a21.333333 21.333333 0 1 1 39.552 15.829333l-39.253333 98.133334a21.162667 21.162667 0 0 1-27.690667 11.861333 21.248 21.248 0 0 1-11.861333-27.690667zM490.666667 64a21.333333 21.333333 0 0 1 42.666666 0v117.76a21.333333 21.333333 0 0 1-42.666666 0V64z m-143.573334 19.456a21.290667 21.290667 0 0 1 27.690667 11.904l39.253333 98.133333a21.333333 21.333333 0 1 1-39.594666 15.829334l-39.253334-98.133334a21.333333 21.333333 0 0 1 11.904-27.733333zM227.669333 162.688a21.376 21.376 0 0 1 28.629334 9.514667l39.296 78.506666a21.333333 21.333333 0 0 1-38.186667 19.114667l-39.296-78.506667a21.333333 21.333333 0 0 1 9.557333-28.629333z m-103.68 102.144a21.333333 21.333333 0 0 1 30.165334 0l58.88 58.88a21.333333 21.333333 0 0 1-30.165334 30.122667l-58.88-58.88a21.333333 21.333333 0 0 1 0-30.122667z m-41.898666 140.586667a21.333333 21.333333 0 0 1 29.568-5.930667l58.88 39.253333a21.333333 21.333333 0 0 1-23.637334 35.541334l-58.88-39.253334a21.333333 21.333333 0 0 1-5.930666-29.610666z m-2.517334 122.88a21.418667 21.418667 0 0 1 27.008-13.482667l58.88 19.626667a21.333333 21.333333 0 1 1-13.482666 40.448l-58.88-19.626667a21.333333 21.333333 0 0 1-13.525334-26.965333zM140.842667 832c90.026667 104.277333 222.890667 170.666667 371.157333 170.666667s281.088-66.389333 371.157333-170.666667H140.842667z" p-id="15349"></path></svg>