<?xml version="1.0" standalone="no"?><!DOCTYPE svg PUBLIC "-//W3C//DTD SVG 1.1//EN" "http://www.w3.org/Graphics/SVG/1.1/DTD/svg11.dtd"><svg t="1571155336063" class="icon" viewBox="0 0 1170 1024" version="1.1" xmlns="http://www.w3.org/2000/svg" p-id="48965" xmlns:xlink="http://www.w3.org/1999/xlink" width="228.515625" height="200"><defs><style type="text/css"></style></defs><path d="M73.142857 182.857143h192v54.857143c0 30.208 21.577143 54.857143 47.981714 54.857143h160.036572c26.404571 0 47.981714-24.649143 47.981714-54.857143V182.857143H1097.142857a36.571429 36.571429 0 0 0 0-73.142857H521.142857V54.857143c0-30.208-21.577143-54.857143-47.981714-54.857143H313.051429c-26.331429 0-47.981714 24.649143-47.981715 54.857143v54.857143H73.142857a36.571429 36.571429 0 0 0 0 73.142857zM329.142857 73.142857h128v146.285714H329.142857V73.142857zM1097.142857 475.428571h-192v-54.857142c0-30.134857-21.577143-54.857143-47.981714-54.857143H697.124571c-26.404571 0-47.981714 24.722286-47.981714 54.857143v54.857142H73.142857a36.571429 36.571429 0 0 0 0 73.142858h576v54.857142c0 30.134857 21.577143 54.857143 47.981714 54.857143h160.036572c26.404571 0 47.981714-24.722286 47.981714-54.857143V548.571429H1097.142857a36.571429 36.571429 0 0 0 0-73.142858zM841.142857 585.142857H713.142857V438.857143h128v146.285714z m256 256.365714V841.142857H521.142857v-54.857143c0-30.134857-21.577143-54.857143-47.981714-54.857143H313.197714c-26.404571 0-47.981714 24.722286-47.981714 54.857143v54.857143H73.142857v0.365714a36.571429 36.571429 0 0 0 0 73.142858c1.097143 0 2.194286-0.219429 3.291429-0.365715h188.708571v54.857143c0 30.134857 21.577143 54.857143 47.981714 54.857143h160.036572c26.404571 0 47.981714-24.722286 47.981714-54.857143v-54.857143h572.708572c1.097143 0.146286 2.194286 0.365714 3.291428 0.365715a36.571429 36.571429 0 1 0 0-73.142858zM457.142857 950.857143H329.142857v-146.285714h128v146.285714z" p-id="48966"></path></svg>